<svg width="367" height="42" viewBox="0 0 367 42" fill="none" xmlns="http://www.w3.org/2000/svg">
<path d="M7.73798 20.8539L27.0124 1.93018H36.7554L17.4105 20.8539L38.1206 40.0598H28.0905L7.74302 20.8539H7.73798ZM0 1.93018H7.73798V40.0598H0V1.93018Z" fill="#FF3C42"/>
<path d="M119.369 40.0648V8.96041H96.7298V40.0648H88.9868V1.93518H127.107V40.0648H119.369Z" fill="#FF3C42"/>
<path d="M60.6898 35.4082C53.0929 35.4082 47.1483 28.8869 47.1483 21C47.1483 13.113 53.0929 6.8085 60.6898 6.8085C68.2867 6.8085 74.2313 13.118 74.2313 21C74.2313 28.8819 68.2867 35.4082 60.6898 35.4082ZM60.6898 0C49.1534 0 39.5514 9.45929 39.5514 21C39.5514 32.5406 49.1534 42 60.6898 42C72.2262 42 81.8282 32.5406 81.8282 21C81.8282 9.45929 72.2262 0 60.6898 0Z" fill="#FF3C42"/>
<path d="M133.128 40.0648L154.19 0.856689L175.258 40.0648H166.372L154.19 15.91L142.014 40.0648H133.128Z" fill="#FF3C42"/>
<path d="M233.298 40.0648L254.361 0.856689L275.429 40.0648H266.542L254.361 15.91L242.18 40.0648H233.298Z" fill="#FF3C42"/>
<path d="M214.88 35.4082C207.283 35.4082 201.339 28.8869 201.339 21C201.339 13.113 207.283 6.8085 214.88 6.8085C219.943 6.8085 224.271 9.61552 226.593 13.8185L232.119 8.94024C228.265 3.54787 221.938 0 214.875 0C203.339 0 193.737 9.45929 193.737 21C193.737 32.5406 203.339 42 214.875 42C221.963 42 228.321 38.4219 232.17 32.9892L226.653 28.1209C224.346 32.4499 219.983 35.4032 214.875 35.4032L214.88 35.4082Z" fill="#FF3C42"/>
<path d="M309.046 24.8201C309.046 24.8201 309.429 24.7697 309.439 24.7697C310.728 24.7697 311.958 24.5479 313.116 24.1548C314.114 23.8121 315.056 23.3435 315.907 22.7538C317.242 21.9072 318.33 20.8186 319.151 19.4932C319.847 18.3693 320.325 17.1246 320.582 15.784C320.753 14.9979 320.849 14.1865 320.849 13.3499C320.849 12.4478 320.733 11.571 320.537 10.7243C320.068 8.72863 319.076 6.93958 317.716 5.49825C315.635 3.30603 312.703 1.93018 309.439 1.93018H282.734V40.0598H290.472V8.95036H308.693C309.534 8.95036 310.315 9.18718 310.985 9.60043H310.975C312.023 10.2405 312.784 11.3038 313.01 12.5587C313.036 12.6947 313.056 12.8359 313.066 12.977C313.076 13.0979 313.086 13.2239 313.086 13.3499C313.086 13.4759 313.081 13.6019 313.066 13.7228C312.874 15.9705 310.995 17.7394 308.698 17.7394H295.938L313.081 40.0598H320.849L309.041 24.815L309.046 24.8201Z" fill="#FF3C42"/>
<path d="M347.937 1.93518H328.879V40.0648H348.028C358.506 40.0194 366.99 31.5126 367 21.0201V20.9798C366.99 10.4572 358.461 1.93518 347.942 1.93518H347.937ZM358.466 25.0619C356.844 29.5824 352.607 32.8481 347.574 33.0245C347.499 33.0295 336.617 33.0446 336.617 33.0446V8.96041C336.617 8.96041 347.489 8.97549 347.574 8.98053C352.607 9.15692 356.849 12.4226 358.466 16.9431C358.919 18.2131 359.181 19.5738 359.181 21C359.181 22.4262 358.919 23.7869 358.466 25.0569V25.0619Z" fill="#FF3C42"/>
</svg>
