<svg width="29" height="18" viewBox="0 0 29 18" fill="none" xmlns="http://www.w3.org/2000/svg">
<path d="M19.8001 9.72852H17.5044V10.8084H19.8001V9.72852Z" fill="#555555"/>
<path d="M4.09572 9.72852H1.80005V10.8084H4.09572V9.72852Z" fill="#555555"/>
<path d="M19.8001 16.1104H17.0107V18.0002H19.8001V16.1104Z" fill="#555555"/>
<path d="M4.69541 16.1104H1.90601V18.0002H4.69541V16.1104Z" fill="#555555"/>
<path d="M18.7262 11.016H2.94653L4.70664 6.7098C4.98001 6.02675 5.58809 5.53808 6.33565 5.40579L6.41097 5.40039L15.3705 5.40579C16.1181 5.54078 16.7262 6.02944 17.0023 6.71249L18.7234 11.016H18.7262ZM4.17945 10.206H17.5044L16.2241 7.00677C16.0595 6.5964 15.6997 6.29943 15.2562 6.21033H6.4556C6.01208 6.30212 5.65225 6.5964 5.48768 7.00677L4.17945 10.206Z" fill="#555555"/>
<path d="M19.3426 11.5047L18.3217 10.2061H3.35095L2.34956 11.5155C2.06783 11.8853 1.91162 12.3416 1.91162 12.8033V16.9232H19.7973V12.8168C19.7973 12.347 19.6355 11.8826 19.3426 11.5074V11.5047ZM6.14035 13.8697H3.62989V12.7898H6.14035V13.8697ZM12.7847 15.4896H9.37605V14.6796H12.7847V15.4896ZM14.1794 13.8697H7.98135V13.0597H14.1794V13.8697ZM18.0818 13.8697H15.5713V12.7898H18.0818V13.8697Z" fill="#555555"/>
<path d="M22.9044 2.80446C22.9044 3.61115 23.531 4.26726 24.3013 4.26726C25.0716 4.26726 25.6981 3.61115 25.6981 2.80446V2.02734H22.9044V2.80446Z" fill="#555555"/>
<path d="M22.9044 0V0.583508V1.34449H25.6981V0.583508V0H22.9044Z" fill="#555555"/>
<path d="M25.3542 4.82422L24.3014 6.87591L23.2486 4.82422C22.3037 5.06623 21.6001 5.95628 21.6001 7.02111V10.8475L22.486 11.7752L23.1459 18.0002H25.4543L26.1142 11.7752L27.0001 10.8475V7.02111C27.0001 5.95628 26.2965 5.06623 25.3516 4.82422H25.3542Z" fill="#555555"/>
</svg>
