<svg width="32" height="24" viewBox="0 0 32 24" fill="none" xmlns="http://www.w3.org/2000/svg">
<g clip-path="url(#clip0_1834_43069)">
<path d="M30.0646 15.3169L31 15.3003L30.9874 20.9718C30.9852 22.1185 30.0201 23.0005 28.8374 23.0005H3.16042C1.93616 23.0005 1.00148 22.0745 1.00148 20.8989L1 15.2988L1.93097 15.3082V20.9011C1.93023 21.5314 2.41312 22.0954 3.10561 22.0954H28.8922C29.5869 22.0954 30.0646 21.5314 30.069 20.9018L30.0653 15.3169H30.0646Z" fill="#1E2F46"/>
<path d="M30.0682 11.5504L30.0556 5.89841C30.0541 5.25222 29.5098 4.76325 28.8358 4.76253L10.6111 4.7445L13.447 3.87185L28.8388 3.85742C30.0675 3.85598 30.991 4.80003 30.9918 5.96981L30.994 11.5331L30.0682 11.5504Z" fill="#1F3046"/>
<path d="M6.58201 5.59042C5.84212 5.81976 4.78968 4.5829 4.26013 3.88839C5.37108 3.61073 5.66659 4.9911 7.43522 4.30524L8.86834 3.74992C9.00758 3.69583 9.11793 3.49678 8.99721 3.37418L6.66792 1.00721L7.65815 1L10.4355 3.06118C10.6918 3.25158 11.7768 2.58447 12.8352 2.41138C13.3462 2.32772 13.9935 2.37965 14.3209 2.81742C14.449 2.98834 14.1357 3.25085 13.9454 3.30927L6.58201 5.58969V5.59042Z" fill="#1E2F46"/>
<path d="M19.7247 18.2098L18.7034 18.2185L17.9953 16.9045L17.1354 15.2342C17.2162 16.2871 17.2525 17.2196 17.2154 18.2214L16.2815 18.2185V13.9656L17.3043 13.9541L17.9079 15.1065C18.2871 15.69 18.5056 16.2893 18.8596 16.9095C18.7908 15.8688 18.7426 14.963 18.7848 13.9541L19.7158 13.9512L19.7239 18.2084L19.7247 18.2098Z" fill="#1E2F46"/>
<path d="M22.8516 16.5967L22.1458 16.5982L22.1428 15.8121L23.7456 15.8142L23.7315 17.804C22.8872 18.4798 21.5777 18.487 20.7705 17.7377C19.7862 16.8239 19.9491 14.6437 21.3726 14.0588C22.1895 13.7235 23.0553 13.8252 23.6626 14.4245L23.139 15.0353C22.8242 14.7721 22.5087 14.6509 22.1014 14.7231C21.1563 14.8904 20.9193 16.208 21.3926 16.9811C21.6903 17.4665 22.3376 17.5675 22.8405 17.3699L22.8509 16.596L22.8516 16.5967Z" fill="#1E2F46"/>
<path d="M15.5282 13.957L15.5008 16.6442C15.4956 17.1433 15.3164 17.682 14.8861 17.9856C14.2869 18.4083 13.3878 18.4155 12.7657 18.0325C12.2805 17.7332 12.0702 17.1757 12.0643 16.637L12.0354 13.9664L13.0249 13.965L13.0545 16.7106C13.0597 17.1635 13.3611 17.4657 13.7729 17.4721C14.2092 17.4794 14.541 17.1829 14.5454 16.7033L14.5713 13.9686L15.5275 13.957H15.5282Z" fill="#1E2F46"/>
<path d="M1.93034 6.00454L1.93478 11.5491L1.00159 11.5347L1.01196 5.90069C1.01418 4.80303 1.89405 3.9513 2.99388 3.86331L3.8382 3.84961C4.01151 4.18785 4.22703 4.44892 4.49514 4.74317L3.0835 4.76625C2.40953 4.77707 1.9296 5.31436 1.93034 6.00527V6.00454Z" fill="#1E2F46"/>
<path d="M26.8575 16.4272L25.3689 16.4294V17.4124L27.1805 17.4102L27.1916 18.2237L24.3824 18.223L24.3794 13.9528L27.1057 13.9463L27.122 14.7605L25.3726 14.7612L25.3644 15.6086L26.8516 15.6209L26.8575 16.4272Z" fill="#1E2F46"/>
<path d="M7.50798 17.4065L7.51613 18.2236L4.80616 18.225L4.80542 13.9541L5.79861 13.9664L5.80083 17.4122L7.50798 17.4065Z" fill="#1F3046"/>
<path d="M12.017 9.96527H4.84471C4.77731 9.8607 4.77657 9.72511 4.84619 9.61621H12.0185C12.0422 9.728 12.0533 9.78497 12.0185 9.96527H12.017Z" fill="#1E2F46"/>
<path d="M27.1553 9.96553H19.9786C19.9497 9.8321 19.949 9.75638 19.9786 9.61719H27.1546C27.2079 9.71094 27.2279 9.81768 27.1553 9.96553Z" fill="#1E2F46"/>
<path d="M16.8406 10.9839C16.8161 11.038 16.6236 11.0582 16.5295 11.0106L16.5266 9.8668H15.3519L15.349 11.0142C15.2393 11.0387 15.129 11.0387 15.0223 11.0128V8.57514C15.1282 8.54918 15.2386 8.5499 15.349 8.57298L15.3541 9.5877L16.5184 9.59275L16.5266 8.5737C16.6628 8.54774 16.7413 8.55206 16.848 8.5773L16.8406 10.9847V10.9839Z" fill="#23334A"/>
<path d="M18.6152 9.86494L17.6642 9.8671L17.6679 10.7513L18.8033 10.778C18.8663 10.7794 18.8603 11.0268 18.7974 11.0268L17.3413 11.0253L17.3428 8.56318L18.7744 8.55957C18.8063 8.63457 18.8107 8.7103 18.7937 8.81992L17.6709 8.82858L17.6687 9.5916L18.613 9.59521L18.6159 9.86566L18.6152 9.86494Z" fill="#203148"/>
<path d="M13.9492 10.9941C13.8507 11.0525 13.7174 11.0417 13.6204 11.0121L13.6181 8.84202L12.8612 8.82904L12.8649 8.56148L14.6957 8.55859C14.7246 8.67471 14.7143 8.75476 14.6972 8.83048L13.9455 8.83914L13.9492 10.9948V10.9941Z" fill="#27374D"/>
<path fill-rule="evenodd" clip-rule="evenodd" d="M9.51895 13.8672C10.3528 13.8673 11.0716 14.3026 11.3471 15.0879C11.5988 15.8068 11.5783 16.6187 11.2377 17.3037C10.9244 17.934 10.3085 18.2856 9.55606 18.2979V18.2988C8.68379 18.3131 7.99984 17.8514 7.71622 17.0957C7.47487 16.4532 7.47017 15.7388 7.69669 15.0928C7.97072 14.3103 8.68278 13.8679 9.51895 13.8672ZM9.48575 14.7031C8.58312 14.7308 8.30912 16.0643 8.74161 16.96C8.90164 17.2915 9.21377 17.4725 9.55509 17.4639C10.437 17.4406 10.7343 16.1322 10.3256 15.2178C10.1693 14.8687 9.83237 14.6923 9.48575 14.7031Z" fill="#1E2F46"/>
</g>
<defs>
<clipPath id="clip0_1834_43069">
<rect width="32" height="24" fill="white"/>
</clipPath>
</defs>
</svg>
