<svg width="35" height="20" viewBox="0 0 35 20" fill="none" xmlns="http://www.w3.org/2000/svg">
<path d="M5.02832 11C6.37416 11 7.58009 11.676 8.31445 12.7031L7.26074 13.6318C6.81815 12.8315 5.99384 12.2969 5.0293 12.2969C3.58172 12.2969 2.4493 13.4977 2.44922 15C2.44922 16.5023 3.58167 17.7451 5.0293 17.7451L5.02832 17.7441C6.00169 17.7441 6.83281 17.181 7.27246 16.3564L8.32422 17.2842C7.59082 18.319 6.37896 19 5.02832 19C2.83 19 1 17.1983 1 15C1.00009 12.8018 2.83006 11 5.02832 11ZM16.5674 18.6318H14.874L12.5527 14.0303L10.2314 18.6318H8.53906L12.5527 11.1631L16.5674 18.6318ZM30.3848 11.3682C32.3891 11.3682 34.0146 12.9918 34.0166 14.9961V15.0039C34.0147 17.0025 32.398 18.6231 30.4014 18.6318H26.752V11.3682H30.3848ZM23.0479 11.3672C23.6698 11.3672 24.2286 11.6294 24.625 12.0469C24.8842 12.3214 25.0728 12.6628 25.1621 13.043C25.1995 13.2042 25.2217 13.3712 25.2217 13.543C25.2217 13.7023 25.2035 13.8571 25.1709 14.0068C25.1219 14.262 25.0308 14.4989 24.8984 14.7129C24.742 14.9654 24.5347 15.1727 24.2803 15.334C24.118 15.4463 23.9381 15.5353 23.748 15.6006C23.5274 15.6754 23.2935 15.7178 23.0479 15.7178C23.0459 15.7178 22.9727 15.7275 22.9727 15.7275L22.9717 15.7266L25.2217 18.6309H23.7422L20.4746 14.3789H22.9062C23.3439 14.3789 23.7026 14.0422 23.7393 13.6143C23.7421 13.5913 23.7432 13.5669 23.7432 13.543C23.7432 13.519 23.7412 13.4947 23.7393 13.4717C23.7373 13.445 23.7333 13.4183 23.7285 13.3926C23.6853 13.1537 23.5403 12.951 23.3408 12.8291H23.3428C23.2151 12.7504 23.0656 12.7051 22.9053 12.7051H19.4336V18.6309H17.959V11.3672H23.0479ZM28.2266 17.2939C28.2266 17.2939 30.2826 17.292 30.3145 17.291C31.2735 17.2574 32.0815 16.6345 32.3906 15.7734V15.7725C32.4769 15.5307 32.5264 15.2715 32.5264 15C32.5264 14.7285 32.4769 14.4693 32.3906 14.2275C32.0825 13.3665 31.2735 12.7445 30.3145 12.7109C30.2827 12.71 28.2266 12.707 28.2266 12.707V17.2939Z" fill="#444444"/>
<path d="M2.47444 4.97219L6.14711 1.36768H8.0036L4.3175 4.97219L8.26374 8.63046H6.35254L2.4754 4.97219H2.47444ZM1 1.36768H2.47444V8.63046H1V1.36768Z" fill="#444444"/>
<path d="M23.7453 8.63144V2.70679H19.4315V8.63144H17.9561V1.36865H25.2198V8.63144H23.7453Z" fill="#444444"/>
<path d="M12.5642 7.74442C11.1167 7.74442 9.98394 6.50227 9.98394 4.99999C9.98394 3.49771 11.1167 2.29686 12.5642 2.29686C14.0118 2.29686 15.1445 3.49867 15.1445 4.99999C15.1445 6.50131 14.0118 7.74442 12.5642 7.74442ZM12.5642 1C10.366 1 8.53638 2.80177 8.53638 4.99999C8.53638 7.19822 10.366 9 12.5642 9C14.7624 9 16.5921 7.19822 16.5921 4.99999C16.5921 2.80177 14.7624 1 12.5642 1Z" fill="#444444"/>
<path d="M26.3669 8.6313L30.3804 1.16309L34.3948 8.6313H32.7015L30.3804 4.03038L28.0603 8.6313H26.3669Z" fill="#444444"/>
</svg>
