<svg width="70" height="24" viewBox="0 0 70 24" fill="none" xmlns="http://www.w3.org/2000/svg">
<g clip-path="url(#clip0_1834_43077)">
<path d="M29.5145 5.00781C29.5362 5.72297 29.5486 6.45762 29.5517 7.19527C28.6689 7.19977 27.7365 7.19977 26.8491 7.19527C26.8521 6.45762 26.8645 5.72297 26.8862 5.00781C26.6369 5.0378 26.2001 5.0378 25.9492 5.00781C26.0003 6.70201 26.0003 8.50715 25.9492 10.2028C26.1986 10.1729 26.6353 10.1729 26.8862 10.2028C26.8614 9.40373 26.8491 8.58062 26.8475 7.75601C27.7349 7.75151 28.6689 7.75151 29.5517 7.75601C29.5517 8.58062 29.5377 9.40523 29.5129 10.2028C29.7623 10.1729 30.199 10.1729 30.4499 10.2028C30.3988 8.50865 30.3988 6.70351 30.4499 5.00781C30.2006 5.0378 29.7638 5.0378 29.5129 5.00781H29.5145Z" fill="#10312B"/>
<path d="M21.7069 5.58954C21.7426 7.11131 21.7379 8.70056 21.6915 10.2013C21.9408 10.1714 22.3776 10.1714 22.6285 10.2013C22.582 8.69906 22.5774 7.11131 22.613 5.58954C23.1736 5.59553 23.7265 5.61352 24.2469 5.64501C24.2361 5.49208 24.2345 5.16074 24.2469 5.00781C22.9243 5.01381 21.3956 5.01381 20.073 5.00781C20.0854 5.16074 20.0838 5.49208 20.073 5.64501C20.5934 5.61352 21.1463 5.59553 21.7069 5.58954Z" fill="#10312B"/>
<path d="M35.3392 10.2014C35.3268 10.047 35.3283 9.71265 35.3407 9.55822C34.681 9.5972 33.9701 9.6152 33.2979 9.6152C33.2824 8.99299 33.2747 8.36929 33.2731 7.74708C33.8911 7.74708 34.5571 7.74708 35.1657 7.78157C35.1549 7.63613 35.1564 7.31079 35.1673 7.16536C34.5602 7.20134 33.8926 7.20134 33.2747 7.19984C33.2762 6.6631 33.284 6.12785 33.2979 5.5911C33.9716 5.5911 34.6825 5.6091 35.3423 5.64808C35.3283 5.49365 35.3283 5.15931 35.3407 5.00488C34.0274 5.01538 33.7006 5.01538 32.3857 5.00488C32.4368 6.69908 32.4368 8.50422 32.3857 10.1999C33.699 10.1894 34.0258 10.1894 35.3407 10.1999L35.3392 10.2014Z" fill="#10312B"/>
<path d="M55.4483 5.00566L55.4716 8.72689L51.8862 4.9082H51.6012C51.5594 6.63089 51.6043 8.47801 51.5516 10.2007C51.7282 10.1857 52.0689 10.1857 52.2455 10.2007C52.2068 8.9158 52.1975 7.80933 52.2176 6.52444L55.7519 10.2457H56.0524C55.9997 8.51999 55.9997 6.73284 56.0524 5.00716C55.9052 5.02515 55.5955 5.02515 55.4499 5.00716L55.4483 5.00566Z" fill="#10312B"/>
<path d="M40.3292 10.2009C40.3044 9.40177 40.292 8.57866 40.2905 7.75406C41.1779 7.74956 42.1118 7.74956 42.9946 7.75406C42.9946 8.57866 42.9807 9.40327 42.9559 10.2009C43.2052 10.1709 43.642 10.1709 43.8929 10.2009C43.8418 8.5067 43.8418 6.70155 43.8929 5.00586C43.6435 5.03585 43.2068 5.03585 42.9559 5.00586C42.9776 5.72102 42.99 6.45567 42.9931 7.19332C42.1103 7.19782 41.1779 7.19782 40.2905 7.19332C40.2936 6.45567 40.3059 5.72102 40.3276 5.00586C40.0783 5.03585 39.6415 5.03585 39.3906 5.00586C39.4417 6.70006 39.4417 8.5052 39.3906 10.2009C39.64 10.1709 40.0767 10.1709 40.3276 10.2009H40.3292Z" fill="#10312B"/>
<path d="M47.6626 4.9082C46.9548 6.50644 45.9652 8.62794 45.183 10.2007C45.355 10.1872 45.7112 10.1872 45.8831 10.2007C46.1975 9.46904 47.2383 7.20062 47.6007 6.34302C47.9972 7.31456 48.976 9.50652 49.2563 10.2007C49.5057 10.1707 49.9656 10.1707 50.2165 10.2007L47.8733 4.9082H47.6642H47.6626Z" fill="#10312B"/>
<path d="M60.4214 4.85449C58.6806 4.85449 57.663 5.92199 57.663 7.60419C57.663 9.28639 58.6806 10.3539 60.4214 10.3539C62.1622 10.3539 63.1797 9.28639 63.1797 7.60419C63.1797 5.92199 62.1622 4.85449 60.4214 4.85449ZM60.4214 9.9011C59.3961 9.9011 58.5783 9.33587 58.5783 7.60419C58.5783 5.87251 59.3961 5.30728 60.4214 5.30728C61.4467 5.30728 62.2644 5.87251 62.2644 7.60419C62.2644 9.33587 61.4467 9.9011 60.4214 9.9011Z" fill="#10312B"/>
<path d="M68.5663 5.00781C68.3805 5.02281 68.0088 5.02281 67.8229 5.00781L65.5571 7.29423C65.5602 6.52359 65.5726 5.75446 65.5942 5.00781C65.3449 5.0378 64.9081 5.0378 64.6572 5.00781C64.7083 6.70201 64.7083 8.50715 64.6572 10.2028C64.9066 10.1729 65.3433 10.1729 65.5942 10.2028C65.5726 9.50718 65.5602 8.79352 65.5571 8.07536C65.6237 8.00789 65.7026 7.92993 65.7878 7.84297L67.9546 10.2028C68.2395 10.1684 68.7134 10.1684 69 10.2028L66.2896 7.33621C67.1275 6.48461 68.2349 5.34515 68.5648 5.00781H68.5663Z" fill="#10312B"/>
<path d="M23.8055 12.7979C23.8272 13.513 23.8396 14.2477 23.8427 14.9853C22.9599 14.9898 22.0275 14.9898 21.1401 14.9853C21.1432 14.2477 21.1556 13.513 21.1772 12.7979C20.9279 12.8278 20.4911 12.8278 20.2402 12.7979C20.2913 14.492 20.2913 16.2972 20.2402 17.9929C20.4896 17.9629 20.9263 17.9629 21.1772 17.9929C21.1525 17.1938 21.1401 16.3707 21.1385 15.546C22.026 15.5416 22.9599 15.5416 23.8427 15.546C23.8427 16.3707 23.8287 17.1953 23.8039 17.9929C24.0533 17.9629 24.4901 17.9629 24.741 17.9929C24.6898 16.2987 24.6898 14.4935 24.741 12.7979C24.4916 12.8278 24.0548 12.8278 23.8039 12.7979H23.8055Z" fill="#10312B"/>
<path d="M37.1837 12.7979C37.2348 14.492 37.2348 16.2972 37.1837 17.9929C37.433 17.9629 37.8698 17.9629 38.1207 17.9929C38.0695 16.2987 38.0695 14.4935 38.1207 12.7979C37.8713 12.8278 37.4346 12.8278 37.1837 12.7979Z" fill="#10312B"/>
<path d="M46.9349 14.135C47.3314 15.1066 48.3102 17.2985 48.5906 17.9927C48.8399 17.9627 49.2999 17.9627 49.5508 17.9927L47.2075 12.7002H46.9984C46.2907 14.2984 45.301 16.4199 44.5189 17.9927C44.6908 17.9792 45.047 17.9792 45.2189 17.9927C45.5333 17.261 46.5741 14.9926 46.9365 14.135H46.9349Z" fill="#10312B"/>
<path d="M29.6307 17.9924C29.6184 17.838 29.6199 17.5037 29.6323 17.3492C28.9725 17.3882 28.2616 17.4062 27.5895 17.4062C27.574 16.784 27.5662 16.1603 27.5647 15.5381C28.1826 15.5381 28.8486 15.5381 29.4573 15.5726C29.4464 15.4272 29.448 15.1018 29.4588 14.9564C28.8517 14.9924 28.1842 14.9924 27.5662 14.9909C27.5678 14.4541 27.5755 13.9189 27.5895 13.3821C28.2632 13.3821 28.9741 13.4001 29.6338 13.4391C29.6199 13.2847 29.6199 12.9503 29.6323 12.7959C28.3189 12.8064 27.9921 12.8064 26.6772 12.7959C26.7284 14.4901 26.7284 16.2952 26.6772 17.9909C27.9906 17.9804 28.3174 17.9804 29.6323 17.9909L29.6307 17.9924Z" fill="#10312B"/>
<path d="M60.115 17.9924C60.1026 17.838 60.1042 17.5037 60.1165 17.3492C59.4568 17.3882 58.7459 17.4062 58.0737 17.4062C58.0582 16.784 58.0505 16.1603 58.0489 15.5381C58.6669 15.5381 59.3329 15.5381 59.9415 15.5726C59.9307 15.4272 59.9322 15.1018 59.9431 14.9564C59.336 14.9924 58.6684 14.9924 58.0505 14.9909C58.052 14.4541 58.0598 13.9189 58.0737 13.3821C58.7474 13.3821 59.4583 13.4001 60.1181 13.4391C60.1042 13.2847 60.1042 12.9503 60.1165 12.7959C58.8032 12.8064 58.4764 12.8064 57.1615 12.7959C57.2126 14.4901 57.2126 16.2952 57.1615 17.9909C58.4749 17.9804 58.8016 17.9804 60.1165 17.9909L60.115 17.9924Z" fill="#10312B"/>
<path d="M35.1411 14.0597C35.1411 13.7689 35.0776 12.7988 33.3399 12.7988C32.7436 12.8018 32.2526 12.8018 31.6579 12.8018C31.709 14.496 31.709 16.2997 31.6579 17.9939C31.9072 17.9639 32.344 17.9639 32.5949 17.9939C32.5717 17.2262 32.5593 16.4346 32.5562 15.643C32.6057 15.643 32.6538 15.64 32.7018 15.6385L34.5742 17.9954C34.8654 17.9609 35.3223 17.9609 35.6135 17.9954L33.597 15.535C34.8422 15.2817 35.1411 14.64 35.1411 14.0627V14.0597ZM33.0704 13.2906C34.1499 13.2906 34.232 13.9218 34.232 14.1017C34.232 14.6564 33.8277 15.2472 32.5562 15.1122C32.5577 14.5005 32.567 13.8903 32.581 13.2906C32.6119 13.2891 32.6073 13.2876 33.0704 13.2906Z" fill="#10312B"/>
<path d="M53.2758 18.1439C54.1725 18.1439 55.0212 17.9489 55.362 17.778C55.362 17.1738 55.3697 16.1288 55.3914 15.5141C55.1018 15.5456 54.8075 15.5456 54.5179 15.5141C54.5318 15.9279 54.5396 16.6626 54.5427 17.2818C54.2143 17.6011 53.7698 17.6926 53.2773 17.6926C52.252 17.6926 51.4343 17.1273 51.4343 15.3957C51.4343 13.664 52.252 13.0987 53.2773 13.0987C54.078 13.0987 54.5318 13.3116 54.8865 13.8169H55.1544C55.1978 13.5845 55.2582 13.3656 55.3356 13.1587C54.7796 12.7884 54.126 12.6475 53.2789 12.6475C51.538 12.6475 50.5205 13.715 50.5205 15.3972C50.5205 17.0794 51.538 18.1469 53.2789 18.1469L53.2758 18.1439Z" fill="#10312B"/>
<path d="M39.8414 12.7979C39.8538 12.9508 39.8523 13.2821 39.8414 13.435C40.3618 13.4036 40.9147 13.3856 41.4754 13.3796C41.511 14.9014 41.5064 16.4906 41.4599 17.9914C41.7092 17.9614 42.146 17.9614 42.3969 17.9914C42.3504 16.4891 42.3458 14.9014 42.3814 13.3796C42.9421 13.3856 43.495 13.4051 44.0154 13.435C44.0045 13.2821 44.003 12.9508 44.0154 12.7979C42.6927 12.8038 41.1641 12.8038 39.8414 12.7979Z" fill="#10312B"/>
<path d="M1 3C1.04337 8.63433 1.04337 14.3661 1 20.0004C5.36443 19.9764 9.80629 19.9764 14.1707 20.0004C14.1274 14.3661 14.1274 8.63433 14.1707 3C9.80629 3.02399 5.36443 3.02399 1 3ZM1.83169 3.74065C2.92822 3.73465 4.01235 3.73165 5.08875 3.72865C5.11043 6.75722 5.11817 9.76179 5.11508 12.7679C4.02165 12.7649 2.92047 12.7619 1.80536 12.7559C1.80226 9.75729 1.81001 6.76022 1.83169 3.73915V3.74065ZM9.20227 12.7694C8.098 12.7709 6.99528 12.7709 5.89101 12.7694C5.88946 10.8398 5.89101 8.9102 5.89875 6.97761C6.99683 6.97611 8.09645 6.97611 9.19453 6.97761C9.20227 8.91169 9.20537 10.8398 9.20227 12.7694ZM5.11353 13.4815C5.11043 15.4066 5.10268 17.3332 5.08875 19.2703C4.01235 19.2673 2.92822 19.2643 1.83169 19.2583C1.81775 17.3287 1.81001 15.4096 1.80691 13.492C2.90653 13.4875 4.00925 13.483 5.11353 13.4815ZM5.89101 13.48C6.99373 13.4785 8.098 13.4785 9.20072 13.48C9.19917 14.3256 9.19763 15.1727 9.19453 16.0213C8.0949 16.0228 6.99838 16.0213 5.89875 16.0213C5.89565 15.1742 5.8941 14.3271 5.89256 13.48H5.89101ZM9.9844 6.97911C11.1119 6.98061 12.2363 6.98511 13.3576 6.99111C13.37 10.0017 13.37 12.9988 13.3576 16.0093C12.2224 16.0153 11.0995 16.0183 9.9844 16.0213C9.97201 13.0018 9.97201 9.99718 9.9844 6.98061V6.97911ZM13.353 16.744C13.3483 17.5806 13.3452 18.4187 13.339 19.2598C12.2162 19.2658 11.1057 19.2688 10.003 19.2718C9.99679 18.4232 9.99369 17.5791 9.98905 16.7335C11.1135 16.735 12.2363 16.7395 13.3545 16.7455L13.353 16.744ZM13.353 6.25346C12.2193 6.25945 11.1011 6.26245 9.9875 6.26545C9.99214 5.42135 9.99679 4.57575 10.003 3.72865C11.1057 3.73165 12.2162 3.73465 13.339 3.74065C13.3452 4.58025 13.3483 5.41685 13.353 6.25496V6.25346ZM9.17594 3.72715C9.18214 4.57575 9.18678 5.42135 9.18988 6.26695C8.09335 6.26845 6.99838 6.26695 5.90185 6.26695C5.9065 5.42135 5.91114 4.57575 5.91734 3.72715C7.00457 3.72566 8.08871 3.72566 9.17594 3.72715ZM5.91579 19.2733C5.90959 18.4247 5.90495 17.5791 5.90185 16.732C6.99838 16.7305 8.0949 16.7305 9.18988 16.732C9.18524 17.5776 9.18214 18.4232 9.17594 19.2733C8.08871 19.2733 7.00457 19.2733 5.91579 19.2733Z" fill="#10312B"/>
</g>
<defs>
<clipPath id="clip0_1834_43077">
<rect width="70" height="24" fill="white"/>
</clipPath>
</defs>
</svg>
